<svg width="24" height="24" viewBox="0 0 24 24" fill="none" xmlns="http://www.w3.org/2000/svg">
<path d="M12 3.25C7.1675 3.25 3.25 7.1675 3.25 12C3.25 16.8325 7.1675 20.75 12 20.75C16.8325 20.75 20.75 16.8325 20.75 12C20.75 7.1675 16.8325 3.25 12 3.25ZM2 12C2 6.477 6.477 2 12 2C17.523 2 22 6.477 22 12C22 17.523 17.523 22 12 22C6.477 22 2 17.523 2 12ZM10.375 8C10.72 8 11 8.28 11 8.625V15.375C11 15.5408 10.9342 15.6997 10.8169 15.8169C10.6997 15.9342 10.5408 16 10.375 16C10.2092 16 10.0503 15.9342 9.93306 15.8169C9.81585 15.6997 9.75 15.5408 9.75 15.375V8.625C9.75 8.28 10.03 8 10.375 8ZM17 8.625C17 8.45924 16.9342 8.30027 16.8169 8.18306C16.6997 8.06585 16.5408 8 16.375 8C16.2092 8 16.0503 8.06585 15.9331 8.18306C15.8158 8.30027 15.75 8.45924 15.75 8.625V15.375C15.75 15.5408 15.8158 15.6997 15.9331 15.8169C16.0503 15.9342 16.2092 16 16.375 16C16.5408 16 16.6997 15.9342 16.8169 15.8169C16.9342 15.6997 17 15.5408 17 15.375V8.625ZM7.375 10C7.72 10 8 10.28 8 10.625V13.375C8 13.5408 7.93415 13.6997 7.81694 13.8169C7.69973 13.9342 7.54076 14 7.375 14C7.20924 14 7.05027 13.9342 6.93306 13.8169C6.81585 13.6997 6.75 13.5408 6.75 13.375V10.625C6.75 10.28 7.03 10 7.375 10ZM14 10.125C14 9.95924 13.9342 9.80027 13.8169 9.68306C13.6997 9.56585 13.5408 9.5 13.375 9.5C13.2092 9.5 13.0503 9.56585 12.9331 9.68306C12.8158 9.80027 12.75 9.95924 12.75 10.125V13.875C12.75 14.0408 12.8158 14.1997 12.9331 14.3169C13.0503 14.4342 13.2092 14.5 13.375 14.5C13.5408 14.5 13.6997 14.4342 13.8169 14.3169C13.9342 14.1997 14 14.0408 14 13.875V10.125Z" fill="black"/>
</svg>
